<?xml version="1.0" encoding="utf-8"?>
<!-- Generator: Adobe Illustrator 18.1.1, SVG Export Plug-In . SVG Version: 6.00 Build 0)  -->
<svg version="1.1" id="Layer_2" xmlns="http://www.w3.org/2000/svg" xmlns:xlink="http://www.w3.org/1999/xlink" x="0px" y="0px"
	 width="60px" height="88px" viewBox="0 0 60 88" enable-background="new 0 0 60 88" xml:space="preserve">

<rect fill="#00d4ff" width="60" height="88"/>

<g>
	<g>
		<polygon fill="#282d34" points="22.4,28.3 22.4,56 28.4,56 28.4,44.5 33.2,44.5 35.5,38.8 28.4,38.8 28.4,33.6 35.4,33.6
			38.1,28.3 22.4,28.3 		"/>
		<path fill="#282d34" d="M29.8,19.3c-12.3,0-22.2,9.9-22.2,22.2c0,12.3,10,22.2,22.2,22.2c12.3,0,22.2-9.9,22.2-22.2
			C52,29.2,42.1,19.3,29.8,19.3z M29.8,61.2C18.9,61.2,10,52.4,10,41.5c0-10.9,8.8-19.7,19.7-19.7c10.9,0,19.7,8.8,19.7,19.7
			C49.5,52.4,40.7,61.2,29.8,61.2z"/>
	</g>
</g>
</svg>
